<svg width="88" height="88" viewBox="0 0 88 88" fill="none" xmlns="http://www.w3.org/2000/svg">
<g filter="url(#filter0_d_10_159)">
<path d="M84 40C84 62.0914 66.0914 80 44 80C21.9086 80 4 62.0914 4 40C4 17.9086 21.9086 0 44 0C66.0914 0 84 17.9086 84 40Z" fill="#FAA241"/>
<path d="M82 40C82 60.9868 64.9868 78 44 78C23.0132 78 6 60.9868 6 40C6 19.0132 23.0132 2 44 2C64.9868 2 82 19.0132 82 40Z" stroke="#FFF8DC" stroke-width="4"/>
</g>
<path d="M44.7071 16.2929C44.3166 15.9024 43.6834 15.9024 43.2929 16.2929L36.9289 22.6569C36.5384 23.0474 36.5384 23.6805 36.9289 24.0711C37.3195 24.4616 37.9526 24.4616 38.3431 24.0711L44 18.4142L49.6569 24.0711C50.0474 24.4616 50.6805 24.4616 51.0711 24.0711C51.4616 23.6805 51.4616 23.0474 51.0711 22.6569L44.7071 16.2929ZM43.2929 63.7071C43.6834 64.0976 44.3166 64.0976 44.7071 63.7071L51.0711 57.3431C51.4616 56.9526 51.4616 56.3195 51.0711 55.9289C50.6805 55.5384 50.0474 55.5384 49.6569 55.9289L44 61.5858L38.3431 55.9289C37.9526 55.5384 37.3195 55.5384 36.9289 55.9289C36.5384 56.3195 36.5384 56.9526 36.9289 57.3431L43.2929 63.7071ZM43 17L43 63L45 63L45 17L43 17Z" fill="#FFF8DC"/>
<path d="M20.2929 39.2929C19.9024 39.6834 19.9024 40.3166 20.2929 40.7071L26.6569 47.0711C27.0474 47.4616 27.6805 47.4616 28.0711 47.0711C28.4616 46.6805 28.4616 46.0474 28.0711 45.6569L22.4142 40L28.0711 34.3431C28.4616 33.9526 28.4616 33.3195 28.0711 32.9289C27.6805 32.5384 27.0474 32.5384 26.6569 32.9289L20.2929 39.2929ZM67.7071 40.7071C68.0976 40.3166 68.0976 39.6834 67.7071 39.2929L61.3431 32.9289C60.9526 32.5384 60.3195 32.5384 59.9289 32.9289C59.5384 33.3195 59.5384 33.9526 59.9289 34.3431L65.5858 40L59.9289 45.6569C59.5384 46.0474 59.5384 46.6805 59.9289 47.0711C60.3195 47.4616 60.9526 47.4616 61.3431 47.0711L67.7071 40.7071ZM21 41H67V39H21V41Z" fill="#FFF8DC"/>
<defs>
<filter id="filter0_d_10_159" x="0" y="0" width="88" height="88" filterUnits="userSpaceOnUse" color-interpolation-filters="sRGB">
<feFlood flood-opacity="0" result="BackgroundImageFix"/>
<feColorMatrix in="SourceAlpha" type="matrix" values="0 0 0 0 0 0 0 0 0 0 0 0 0 0 0 0 0 0 127 0" result="hardAlpha"/>
<feOffset dy="4"/>
<feGaussianBlur stdDeviation="2"/>
<feComposite in2="hardAlpha" operator="out"/>
<feColorMatrix type="matrix" values="0 0 0 0 0 0 0 0 0 0 0 0 0 0 0 0 0 0 0.25 0"/>
<feBlend mode="normal" in2="BackgroundImageFix" result="effect1_dropShadow_10_159"/>
<feBlend mode="normal" in="SourceGraphic" in2="effect1_dropShadow_10_159" result="shape"/>
</filter>
</defs>
</svg>
