<svg width="308" height="569" viewBox="0 0 308 569" fill="none" xmlns="http://www.w3.org/2000/svg">
<path d="M87 3L167 62" stroke="#42A7E1" stroke-width="5" stroke-linecap="round"/>
<path d="M173 92L83.5 123L59 188" stroke="#42A7E1" stroke-width="5" stroke-linecap="round"/>
<path d="M202 100L270 168" stroke="#42A7E1" stroke-width="5" stroke-linecap="round"/>
<path d="M55.4863 122.329C54.7402 120.552 55.2096 110.972 55.5375 106.404L56.6247 105.008L64.6413 99.5571C69.3897 98.2716 79.2864 95.6807 80.8859 95.6022C82.8853 95.504 93.1889 103.261 96.0345 105.21C98.311 106.77 105.912 113.17 108.541 117.139L114.581 131.348C114 133.867 112.637 139.466 111.839 141.707C110.841 144.507 107.649 148.322 103.645 149.475C99.6403 150.628 90.3972 151.386 89.6693 151.086C88.9414 150.786 73.075 147.987 67.4125 143.577C61.7499 139.167 60.3222 135.493 59.0731 132.918C57.824 130.343 56.4189 124.55 55.4863 122.329Z" fill="#FAA241"/>
<path d="M64.8531 110.434L55.8284 106.453C55.0932 111.888 55.2718 118.783 55.453 121.551L55.6988 122.188L61.1994 121.268L64.8531 110.434Z" fill="#42A7E1"/>
<path d="M64.9459 110.209L56.132 106.17L56.6267 105.217L64.9459 110.209Z" fill="#42A7E1"/>
<path d="M65.0956 109.805L57.0844 105.053C57.4592 104.571 62.2683 101.432 64.626 99.9227L67.3885 101.777L71.0378 101.645L72.461 101.935L74.1532 104.74L72.8262 105.491L72.1119 105.455L71.202 105.564L70.7335 106.166L69.0559 107.685L66.3604 109.451L65.0956 109.805Z" fill="#42A7E1"/>
<path d="M67.4301 101.512L64.8577 99.7313L67.0225 98.9638L80.6056 95.7138L81.2839 95.796C81.2253 96.0477 81.1245 96.5937 81.19 96.7637C81.2556 96.9337 81.5145 97.512 81.6358 97.78L82.1614 100.494L82.7734 103.944L81.8473 104.71L80.388 104.466L75.4487 104.56L74.4723 104.542L73.1799 102.495L72.3999 101.59L71.1307 101.42L69.121 101.565L67.4301 101.512Z" fill="#42A7E1"/>
<path d="M83.4713 104.637L83.3982 105.472L83.454 106.036L84.897 106.937L91.9306 112.414L97.6195 116.547L103.164 120.865L104.378 120.472L105.495 119.038L107.532 117.799L108.217 116.92L105.472 113.667C101.661 109.748 98.6479 107.46 97.6175 106.806L94.5884 104.447L88.3653 100.047L83.0096 96.5453L81.7251 96.2884L81.652 97.1236L82.0562 98.405L83.1228 103.919L83.4713 104.637Z" fill="#42A7E1"/>
<path d="M104.496 120.638L103.246 121.078L103.456 121.762L104.159 122.978C104.495 124.628 105.29 128.557 105.772 131.074C106.253 133.59 106.253 137.198 106.193 138.688C106.453 138.989 107.014 139.624 107.178 139.752C107.342 139.88 109.514 142.613 110.58 143.963L111.019 142.446L111.74 141.52C112.532 138.173 114.157 131.448 114.313 131.332C114.469 131.216 114.013 130.553 113.765 130.236L109.144 118.906L108.386 117.126L107.635 117.879L106.837 118.373C106.453 118.619 105.678 119.12 105.649 119.158L104.496 120.638Z" fill="#42A7E1"/>
<path d="M108.932 142.159C109.203 142.489 110.037 143.565 110.42 144.062C109.655 144.903 107.922 146.74 107.111 147.358C106.3 147.975 104.98 148.647 104.421 148.906L101.099 149.888L95.3061 150.654L90.3615 150.967C90.8747 150.202 91.1717 148.55 91.7528 148.333C91.9785 148.249 93.4533 147.526 93.7897 147.094L94.28 145.618C96.14 144.712 99.8747 142.733 100.2 142.57C100.525 142.407 104.397 140.04 106.022 139.224L106.644 139.485C106.834 139.806 107.219 140.483 107.244 140.621C107.268 140.759 106.959 140.846 106.801 140.872L106.117 141.751L106.775 141.223L107.603 140.901C107.933 141.183 108.661 141.83 108.932 142.159Z" fill="#42A7E1"/>
<path d="M69.8532 140.869C69.7335 141.192 69.0775 143.065 68.7645 143.961L68.5483 144.239L70.202 145.081L74.8815 147.015L84.0775 149.716L90.3407 151.1L90.8059 149.231C91.041 148.894 91.5433 148.2 91.6708 148.121C91.7984 148.042 92.9516 147.359 93.5123 147.027L94.0332 145.723C93.4936 145.674 92.3692 145.572 92.1883 145.55C92.0074 145.528 89.4689 144.77 88.2222 144.394L81.4881 141.603L73.974 137.907L71.1438 136.67C70.8231 136.94 70.2011 137.541 70.2789 137.78C70.3567 138.02 70.406 138.747 70.421 139.081C70.2816 139.542 69.9729 140.546 69.8532 140.869Z" fill="#42A7E1"/>
<path d="M69.6893 140.444C69.5452 140.629 68.7899 142.94 68.4303 144.073L67.3828 143.406C66.9258 143.075 65.8487 142.241 65.1959 141.554C64.3799 140.695 61.9373 137.901 61.768 137.695C61.6325 137.53 60.0983 134.684 59.3482 133.282C58.8857 132.005 57.9545 129.417 57.93 129.279C57.9055 129.141 56.4732 124.724 55.7601 122.533L56.0736 122.554L56.2178 122.369L61.0193 121.499C61.0277 121.63 61.0608 121.933 61.1264 122.103C61.2083 122.315 61.8955 123.445 62.0135 123.612C62.1078 123.745 64.3673 127.402 65.4852 129.215L66.5984 130.751L66.3821 131.028C66.2948 131.035 66.0778 131.059 65.9092 131.106C65.6984 131.165 65.5804 130.999 65.1643 130.898C64.7481 130.797 64.7634 130.883 64.5165 130.988C64.2697 131.093 64.0796 131.02 63.8688 131.078C63.7002 131.126 63.1374 131.029 62.8771 130.975L63.4931 131.455C64.1973 131.433 65.6508 131.396 65.8317 131.418C66.0578 131.445 66.0938 131.399 66.3199 131.426C66.546 131.453 68.0601 133.004 69.0967 134.109C70.1334 135.214 70.5387 135.752 70.5693 135.925C70.5938 136.063 70.8599 136.399 70.9899 136.55C70.7772 136.682 70.2841 137.011 70.0124 137.275C69.6727 137.606 70.1861 138.006 70.2473 138.351C70.2963 138.627 70.1847 138.996 70.1229 139.146C70.0384 139.501 69.8335 140.259 69.6893 140.444Z" fill="#42A7E1"/>
<path d="M66.3263 129.618L61.6399 121.761L62.858 117.761L65.1798 110.332L69.5761 107.652C69.9511 107.312 70.7353 106.609 70.8723 106.517L71.9001 105.833C72.1778 105.829 72.7516 105.82 72.8246 105.811C72.916 105.8 74.4916 105.047 74.6229 104.984C74.728 104.934 78.502 104.981 80.3759 105.011L81.8711 105.103L83.0179 105.749L83.2287 106.325L84.6094 106.988L93.6967 114.065L93.5285 118.306C92.7073 120.278 90.8297 124.419 89.8887 125.203C88.7124 126.184 88.8609 125.888 88.581 126.247C88.3571 126.535 86.7482 127.541 85.9717 128.009L69.9588 134.591L67.0728 131.519L66.3263 129.618Z" fill="#FAC129"/>
<path d="M86.3483 128.055L70.1127 134.711L71.1104 136.395L76.1941 138.869L87.2232 143.665L92.1646 145.369L94.0365 145.507L105.883 138.979L105.975 138.226C105.881 136.228 105.707 132.194 105.762 132.039C105.817 131.884 105.477 130.745 105.301 130.195L88.8263 126.356L86.3483 128.055Z" fill="#FAC129"/>
<path d="M95.1663 127.746L88.9463 126.201L89.8314 125.489L90.8537 124.388L93.7111 118.283L93.8507 114.185L94.33 114.311L102.225 120.377L103.047 121.017L103.229 121.736L104.05 123.118L105.238 130.064L104.125 129.692L95.1663 127.746Z" fill="#FAC129"/>
<path d="M80.5905 126.481C80.4768 125.727 80.5896 124.935 80.9451 124.2C81.8964 122.233 84.255 121.411 86.2226 122.362C88.1902 123.314 89.0115 125.672 88.0603 127.64C87.109 129.608 84.7504 130.429 82.7828 129.478" stroke="#42A7E1" stroke-width="1.19686" stroke-linecap="round" stroke-linejoin="round"/>
<path d="M93.1121 122.211C92.0092 120.207 90.4334 118.648 88.4757 117.702C84.9679 116.006 80.6992 116.492 76.694 118.97C75.1223 119.938 73.9837 122.293 74.2007 124.127C74.7468 128.805 77.0169 132.452 80.5247 134.148C84.0326 135.844 88.3013 135.358 92.3064 132.88C93.8782 131.912 95.0168 129.556 94.7998 127.723" stroke="#42A7E1" stroke-width="1.19686" stroke-linecap="round" stroke-linejoin="round"/>
<path d="M225.486 263.329C224.74 261.552 225.21 251.972 225.538 247.404L226.625 246.008L234.641 240.557C239.39 239.272 249.286 236.681 250.886 236.602C252.885 236.504 263.189 244.261 266.035 246.21C268.311 247.77 275.912 254.17 278.541 258.139L284.581 272.348C284 274.867 282.637 280.466 281.839 282.707C280.841 285.507 277.649 289.322 273.645 290.475C269.64 291.628 260.397 292.386 259.669 292.086C258.941 291.786 243.075 288.987 237.412 284.577C231.75 280.167 230.322 276.493 229.073 273.918C227.824 271.343 226.419 265.55 225.486 263.329Z" fill="#FAA241"/>
<path d="M234.853 251.434L225.828 247.453C225.093 252.888 225.272 259.783 225.453 262.551L225.699 263.188L231.199 262.268L234.853 251.434Z" fill="#42A7E1"/>
<path d="M234.946 251.209L226.132 247.17L226.627 246.217L234.946 251.209Z" fill="#42A7E1"/>
<path d="M235.096 250.805L227.084 246.053C227.459 245.571 232.268 242.432 234.626 240.923L237.389 242.777L241.038 242.645L242.461 242.935L244.153 245.74L242.826 246.491L242.112 246.455L241.202 246.564L240.734 247.166L239.056 248.685L236.36 250.451L235.096 250.805Z" fill="#42A7E1"/>
<path d="M237.43 242.512L234.858 240.731L237.022 239.964L250.606 236.714L251.284 236.796C251.225 237.048 251.124 237.594 251.19 237.764C251.256 237.934 251.515 238.512 251.636 238.78L252.161 241.494L252.773 244.944L251.847 245.71L250.388 245.466L245.449 245.56L244.472 245.542L243.18 243.495L242.4 242.59L241.131 242.42L239.121 242.565L237.43 242.512Z" fill="#42A7E1"/>
<path d="M253.471 245.637L253.398 246.472L253.454 247.036L254.897 247.937L261.931 253.414L267.62 257.547L273.164 261.865L274.378 261.472L275.495 260.038L277.532 258.799L278.217 257.92L275.472 254.667C271.661 250.748 268.648 248.46 267.618 247.806L264.588 245.447L258.365 241.047L253.01 237.545L251.725 237.288L251.652 238.124L252.056 239.405L253.123 244.919L253.471 245.637Z" fill="#42A7E1"/>
<path d="M274.496 261.638L273.246 262.078L273.456 262.762L274.159 263.978C274.495 265.628 275.29 269.557 275.772 272.074C276.253 274.59 276.253 278.198 276.193 279.688C276.453 279.989 277.014 280.624 277.178 280.752C277.342 280.88 279.514 283.613 280.58 284.963L281.019 283.446L281.74 282.52C282.532 279.173 284.157 272.448 284.313 272.332C284.469 272.216 284.013 271.553 283.765 271.236L279.144 259.906L278.386 258.126L277.635 258.879L276.837 259.373C276.453 259.619 275.678 260.12 275.649 260.158L274.496 261.638Z" fill="#42A7E1"/>
<path d="M278.932 283.159C279.203 283.489 280.037 284.565 280.42 285.062C279.655 285.903 277.922 287.74 277.111 288.358C276.3 288.975 274.98 289.647 274.421 289.906L271.099 290.888L265.306 291.654L260.361 291.967C260.875 291.202 261.172 289.55 261.753 289.333C261.979 289.249 263.453 288.526 263.79 288.094L264.28 286.618C266.14 285.712 269.875 283.733 270.2 283.57C270.525 283.407 274.397 281.04 276.022 280.224L276.644 280.485C276.834 280.806 277.219 281.483 277.244 281.621C277.268 281.759 276.959 281.846 276.801 281.872L276.117 282.751L276.775 282.223L277.603 281.901C277.933 282.183 278.661 282.83 278.932 283.159Z" fill="#42A7E1"/>
<path d="M239.853 281.869C239.734 282.192 239.078 284.065 238.765 284.961L238.548 285.239L240.202 286.081L244.881 288.015L254.078 290.716L260.341 292.1L260.806 290.231C261.041 289.894 261.543 289.2 261.671 289.121C261.798 289.042 262.952 288.359 263.512 288.027L264.033 286.723C263.494 286.674 262.369 286.572 262.188 286.55C262.007 286.528 259.469 285.77 258.222 285.394L251.488 282.603L243.974 278.907L241.144 277.67C240.823 277.94 240.201 278.541 240.279 278.78C240.357 279.02 240.406 279.747 240.421 280.081C240.282 280.542 239.973 281.546 239.853 281.869Z" fill="#42A7E1"/>
<path d="M239.689 281.444C239.545 281.629 238.79 283.94 238.43 285.073L237.383 284.406C236.926 284.075 235.849 283.241 235.196 282.554C234.38 281.695 231.937 278.901 231.768 278.695C231.632 278.53 230.098 275.684 229.348 274.282C228.886 273.005 227.954 270.417 227.93 270.279C227.905 270.141 226.473 265.724 225.76 263.533L226.074 263.554L226.218 263.369L231.019 262.499C231.028 262.63 231.061 262.933 231.126 263.103C231.208 263.315 231.895 264.445 232.013 264.612C232.108 264.745 234.367 268.402 235.485 270.215L236.598 271.751L236.382 272.028C236.295 272.035 236.078 272.059 235.909 272.106C235.698 272.165 235.58 271.999 235.164 271.898C234.748 271.797 234.763 271.883 234.516 271.988C234.27 272.093 234.08 272.02 233.869 272.078C233.7 272.126 233.137 272.029 232.877 271.975L233.493 272.455C234.197 272.433 235.651 272.396 235.832 272.418C236.058 272.445 236.094 272.399 236.32 272.426C236.546 272.453 238.06 274.004 239.097 275.109C240.133 276.214 240.539 276.752 240.569 276.925C240.594 277.063 240.86 277.399 240.99 277.55C240.777 277.682 240.284 278.011 240.012 278.275C239.673 278.606 240.186 279.006 240.247 279.351C240.296 279.627 240.185 279.996 240.123 280.146C240.038 280.501 239.833 281.259 239.689 281.444Z" fill="#42A7E1"/>
<path d="M236.326 270.618L231.64 262.761L232.858 258.761L235.18 251.332L239.576 248.652C239.951 248.312 240.735 247.609 240.872 247.517L241.9 246.833C242.178 246.829 242.752 246.82 242.825 246.811C242.916 246.8 244.492 246.047 244.623 245.984C244.728 245.934 248.502 245.981 250.376 246.011L251.871 246.103L253.018 246.749L253.229 247.325L254.609 247.988L263.697 255.065L263.528 259.306C262.707 261.278 260.83 265.419 259.889 266.203C258.712 267.184 258.861 266.888 258.581 267.247C258.357 267.535 256.748 268.541 255.972 269.009L239.959 275.591L237.073 272.519L236.326 270.618Z" fill="#FAC129"/>
<path d="M256.348 269.055L240.113 275.711L241.11 277.395L246.194 279.869L257.223 284.665L262.165 286.369L264.036 286.507L275.883 279.979L275.975 279.226C275.881 277.228 275.707 273.194 275.762 273.039C275.817 272.884 275.477 271.745 275.301 271.195L258.826 267.356L256.348 269.055Z" fill="#FAC129"/>
<path d="M265.166 268.746L258.946 267.201L259.831 266.489L260.854 265.388L263.711 259.283L263.851 255.185L264.33 255.311L272.225 261.377L273.047 262.017L273.229 262.736L274.05 264.118L275.238 271.064L274.125 270.692L265.166 268.746Z" fill="#FAC129"/>
<path d="M250.59 267.481C250.477 266.727 250.59 265.935 250.945 265.2C251.896 263.233 254.255 262.411 256.223 263.362C258.19 264.314 259.011 266.672 258.06 268.64C257.109 270.608 254.75 271.429 252.783 270.478" stroke="#42A7E1" stroke-width="1.19686" stroke-linecap="round" stroke-linejoin="round"/>
<path d="M263.112 263.211C262.009 261.207 260.433 259.648 258.476 258.702C254.968 257.006 250.699 257.492 246.694 259.97C245.122 260.938 243.984 263.293 244.201 265.127C244.747 269.805 247.017 273.452 250.525 275.148C254.033 276.844 258.301 276.358 262.306 273.88C263.878 272.912 265.017 270.556 264.8 268.723" stroke="#42A7E1" stroke-width="1.19686" stroke-linecap="round" stroke-linejoin="round"/>
<path d="M234.486 526.329C233.74 524.552 234.21 514.972 234.538 510.404L235.625 509.008L243.641 503.557C248.39 502.272 258.286 499.681 259.886 499.602C261.885 499.504 272.189 507.261 275.035 509.21C277.311 510.77 284.912 517.17 287.541 521.139L293.581 535.348C293 537.867 291.637 543.466 290.839 545.707C289.841 548.507 286.649 552.322 282.645 553.475C278.64 554.628 269.397 555.386 268.669 555.086C267.941 554.786 252.075 551.987 246.412 547.577C240.75 543.167 239.322 539.493 238.073 536.918C236.824 534.343 235.419 528.55 234.486 526.329Z" fill="#FAA241"/>
<path d="M243.853 514.434L234.828 510.453C234.093 515.888 234.272 522.783 234.453 525.551L234.699 526.188L240.199 525.268L243.853 514.434Z" fill="#42A7E1"/>
<path d="M243.946 514.209L235.132 510.17L235.627 509.217L243.946 514.209Z" fill="#42A7E1"/>
<path d="M244.096 513.805L236.084 509.053C236.459 508.571 241.268 505.432 243.626 503.923L246.389 505.777L250.038 505.645L251.461 505.935L253.153 508.74L251.826 509.491L251.112 509.455L250.202 509.564L249.734 510.166L248.056 511.685L245.36 513.451L244.096 513.805Z" fill="#42A7E1"/>
<path d="M246.43 505.512L243.858 503.731L246.022 502.964L259.606 499.714L260.284 499.796C260.225 500.048 260.124 500.594 260.19 500.764C260.256 500.934 260.515 501.512 260.636 501.78L261.161 504.494L261.773 507.944L260.847 508.71L259.388 508.466L254.449 508.56L253.472 508.542L252.18 506.495L251.4 505.59L250.131 505.42L248.121 505.565L246.43 505.512Z" fill="#42A7E1"/>
<path d="M262.471 508.637L262.398 509.472L262.454 510.036L263.897 510.937L270.931 516.414L276.62 520.547L282.164 524.865L283.378 524.472L284.495 523.038L286.532 521.799L287.217 520.92L284.472 517.667C280.661 513.748 277.648 511.46 276.618 510.806L273.588 508.447L267.365 504.047L262.01 500.545L260.725 500.288L260.652 501.124L261.056 502.405L262.123 507.919L262.471 508.637Z" fill="#42A7E1"/>
<path d="M283.496 524.638L282.246 525.078L282.456 525.762L283.159 526.978C283.495 528.628 284.29 532.557 284.772 535.074C285.253 537.59 285.253 541.198 285.193 542.688C285.453 542.989 286.014 543.624 286.178 543.752C286.342 543.88 288.514 546.613 289.58 547.963L290.019 546.446L290.74 545.52C291.532 542.173 293.157 535.448 293.313 535.332C293.469 535.216 293.013 534.553 292.765 534.236L288.144 522.906L287.386 521.126L286.635 521.879L285.837 522.373C285.453 522.619 284.678 523.12 284.649 523.158L283.496 524.638Z" fill="#42A7E1"/>
<path d="M287.932 546.159C288.203 546.489 289.037 547.565 289.42 548.062C288.655 548.903 286.922 550.74 286.111 551.358C285.3 551.975 283.98 552.647 283.421 552.906L280.099 553.888L274.306 554.654L269.361 554.967C269.875 554.202 270.172 552.55 270.753 552.333C270.979 552.249 272.453 551.526 272.79 551.094L273.28 549.618C275.14 548.712 278.875 546.733 279.2 546.57C279.525 546.407 283.397 544.04 285.022 543.224L285.644 543.485C285.834 543.806 286.219 544.483 286.244 544.621C286.268 544.759 285.959 544.846 285.801 544.872L285.117 545.751L285.775 545.223L286.603 544.901C286.933 545.183 287.661 545.83 287.932 546.159Z" fill="#42A7E1"/>
<path d="M248.853 544.869C248.734 545.192 248.078 547.065 247.765 547.961L247.548 548.239L249.202 549.081L253.881 551.015L263.078 553.716L269.341 555.1L269.806 553.231C270.041 552.894 270.543 552.2 270.671 552.121C270.798 552.042 271.952 551.359 272.512 551.027L273.033 549.723C272.494 549.674 271.369 549.572 271.188 549.55C271.007 549.528 268.469 548.77 267.222 548.394L260.488 545.603L252.974 541.907L250.144 540.67C249.823 540.94 249.201 541.541 249.279 541.78C249.357 542.02 249.406 542.747 249.421 543.081C249.282 543.542 248.973 544.546 248.853 544.869Z" fill="#42A7E1"/>
<path d="M248.689 544.444C248.545 544.629 247.79 546.94 247.43 548.073L246.383 547.406C245.926 547.075 244.849 546.241 244.196 545.554C243.38 544.695 240.937 541.901 240.768 541.695C240.632 541.53 239.098 538.684 238.348 537.282C237.886 536.005 236.954 533.417 236.93 533.279C236.905 533.141 235.473 528.724 234.76 526.533L235.074 526.554L235.218 526.369L240.019 525.499C240.028 525.63 240.061 525.933 240.126 526.103C240.208 526.315 240.895 527.445 241.013 527.612C241.108 527.745 243.367 531.402 244.485 533.215L245.598 534.751L245.382 535.028C245.295 535.035 245.078 535.059 244.909 535.106C244.698 535.165 244.58 534.999 244.164 534.898C243.748 534.797 243.763 534.883 243.516 534.988C243.27 535.093 243.08 535.02 242.869 535.078C242.7 535.126 242.137 535.029 241.877 534.975L242.493 535.455C243.197 535.433 244.651 535.396 244.832 535.418C245.058 535.445 245.094 535.399 245.32 535.426C245.546 535.453 247.06 537.004 248.097 538.109C249.133 539.214 249.539 539.752 249.569 539.925C249.594 540.063 249.86 540.399 249.99 540.55C249.777 540.682 249.284 541.011 249.012 541.275C248.673 541.606 249.186 542.006 249.247 542.351C249.296 542.627 249.185 542.996 249.123 543.146C249.038 543.501 248.833 544.259 248.689 544.444Z" fill="#42A7E1"/>
<path d="M245.326 533.618L240.64 525.761L241.858 521.761L244.18 514.332L248.576 511.652C248.951 511.312 249.735 510.609 249.872 510.517L250.9 509.833C251.178 509.829 251.752 509.82 251.825 509.811C251.916 509.8 253.492 509.047 253.623 508.984C253.728 508.934 257.502 508.981 259.376 509.011L260.871 509.103L262.018 509.749L262.229 510.325L263.609 510.988L272.697 518.065L272.528 522.306C271.707 524.278 269.83 528.419 268.889 529.203C267.712 530.184 267.861 529.888 267.581 530.247C267.357 530.535 265.748 531.541 264.972 532.009L248.959 538.591L246.073 535.519L245.326 533.618Z" fill="#FAC129"/>
<path d="M265.348 532.055L249.113 538.711L250.11 540.395L255.194 542.869L266.223 547.665L271.165 549.369L273.036 549.507L284.883 542.979L284.975 542.226C284.881 540.228 284.707 536.194 284.762 536.039C284.817 535.884 284.477 534.745 284.301 534.195L267.826 530.356L265.348 532.055Z" fill="#FAC129"/>
<path d="M274.166 531.746L267.946 530.201L268.831 529.489L269.854 528.388L272.711 522.283L272.851 518.185L273.33 518.311L281.225 524.377L282.047 525.017L282.229 525.736L283.05 527.118L284.238 534.064L283.125 533.692L274.166 531.746Z" fill="#FAC129"/>
<path d="M259.59 530.481C259.477 529.727 259.59 528.935 259.945 528.2C260.896 526.233 263.255 525.411 265.223 526.362C267.19 527.314 268.011 529.672 267.06 531.64C266.109 533.608 263.75 534.429 261.783 533.478" stroke="#42A7E1" stroke-width="1.19686" stroke-linecap="round" stroke-linejoin="round"/>
<path d="M272.112 526.211C271.009 524.207 269.433 522.648 267.476 521.702C263.968 520.006 259.699 520.492 255.694 522.97C254.122 523.938 252.984 526.293 253.201 528.127C253.747 532.805 256.017 536.452 259.525 538.148C263.033 539.844 267.301 539.358 271.306 536.88C272.878 535.912 274.017 533.556 273.8 531.723" stroke="#42A7E1" stroke-width="1.19686" stroke-linecap="round" stroke-linejoin="round"/>
<path d="M87 3L167 62" stroke="#4B4A4A" stroke-width="5" stroke-linecap="round"/>
<path d="M173 92.4514L83.5 123.451L59 188.451" stroke="#4B4A4A" stroke-width="5" stroke-linecap="round"/>
<path d="M202 100L270 168" stroke="#4B4A4A" stroke-width="5" stroke-linecap="round"/>
<path d="M201 445L256.5 435.5L281 392.5" stroke="#4B4A4A" stroke-width="5" stroke-linecap="round"/>
<path d="M57.4999 253L151.5 294.451M57.4999 368L151.5 294.451M151.5 294.451L205.113 263L258.726 269.274L286 338.5" stroke="#4B4A4A" stroke-width="5" stroke-linecap="round"/>
<path d="M200.75 472.5L243.5 486L262 533" stroke="#4B4A4A" stroke-width="5" stroke-linecap="round"/>
<path d="M148.5 450L92 495.25" stroke="#4B4A4A" stroke-width="5" stroke-linecap="round"/>
<path d="M55.4863 122.329C54.7402 120.552 55.2096 110.972 55.5375 106.404L56.6247 105.008L64.6413 99.5571C69.3897 98.2716 79.2864 95.6807 80.8859 95.6022C82.8853 95.504 93.1889 103.261 96.0345 105.21C98.311 106.77 105.912 113.17 108.541 117.139L114.581 131.348C114 133.867 112.637 139.466 111.839 141.707C110.841 144.507 107.649 148.322 103.645 149.475C99.6403 150.628 90.3972 151.386 89.6693 151.086C88.9414 150.786 73.075 147.987 67.4125 143.577C61.7499 139.167 60.3222 135.493 59.0731 132.918C57.824 130.343 56.4189 124.55 55.4863 122.329Z" fill="#FAA241"/>
<path d="M64.8531 110.434L55.8284 106.453C55.0932 111.888 55.2718 118.783 55.453 121.551L55.6988 122.188L61.1994 121.268L64.8531 110.434Z" fill="#4B4A4A"/>
<path d="M64.9459 110.209L56.132 106.17L56.6267 105.217L64.9459 110.209Z" fill="#4B4A4A"/>
<path d="M65.0956 109.805L57.0844 105.053C57.4592 104.571 62.2683 101.432 64.626 99.9227L67.3885 101.777L71.0378 101.645L72.461 101.935L74.1532 104.74L72.8262 105.491L72.1119 105.455L71.202 105.564L70.7335 106.166L69.0559 107.685L66.3604 109.451L65.0956 109.805Z" fill="#4B4A4A"/>
<path d="M67.4301 101.512L64.8577 99.7313L67.0225 98.9638L80.6056 95.7138L81.2839 95.796C81.2253 96.0477 81.1245 96.5937 81.19 96.7637C81.2556 96.9337 81.5145 97.512 81.6358 97.78L82.1614 100.494L82.7734 103.944L81.8473 104.71L80.388 104.466L75.4487 104.56L74.4723 104.542L73.1799 102.495L72.3999 101.59L71.1307 101.42L69.121 101.565L67.4301 101.512Z" fill="#4B4A4A"/>
<path d="M83.4713 104.637L83.3982 105.472L83.454 106.036L84.897 106.937L91.9306 112.414L97.6195 116.547L103.164 120.865L104.378 120.472L105.495 119.038L107.532 117.799L108.217 116.92L105.472 113.667C101.661 109.748 98.6479 107.46 97.6175 106.806L94.5884 104.447L88.3653 100.047L83.0096 96.5453L81.7251 96.2884L81.652 97.1236L82.0562 98.405L83.1228 103.919L83.4713 104.637Z" fill="#4B4A4A"/>
<path d="M104.496 120.638L103.246 121.078L103.456 121.762L104.159 122.978C104.495 124.628 105.29 128.557 105.772 131.074C106.253 133.59 106.253 137.198 106.193 138.688C106.453 138.989 107.014 139.624 107.178 139.752C107.342 139.88 109.514 142.613 110.58 143.963L111.019 142.446L111.74 141.52C112.532 138.173 114.157 131.448 114.313 131.332C114.469 131.216 114.013 130.553 113.765 130.236L109.144 118.906L108.386 117.126L107.635 117.879L106.837 118.373C106.453 118.619 105.678 119.12 105.649 119.158L104.496 120.638Z" fill="#4B4A4A"/>
<path d="M108.932 142.159C109.203 142.489 110.037 143.565 110.42 144.062C109.655 144.903 107.922 146.74 107.111 147.358C106.3 147.975 104.98 148.647 104.421 148.906L101.099 149.888L95.3061 150.654L90.3615 150.967C90.8747 150.202 91.1717 148.55 91.7528 148.333C91.9785 148.249 93.4533 147.526 93.7897 147.094L94.28 145.618C96.14 144.712 99.8747 142.733 100.2 142.57C100.525 142.407 104.397 140.04 106.022 139.224L106.644 139.485C106.834 139.806 107.219 140.483 107.244 140.621C107.268 140.759 106.959 140.846 106.801 140.872L106.117 141.751L106.775 141.223L107.603 140.901C107.933 141.183 108.661 141.83 108.932 142.159Z" fill="#4B4A4A"/>
<path d="M69.8532 140.869C69.7335 141.192 69.0775 143.065 68.7645 143.961L68.5483 144.239L70.202 145.081L74.8815 147.015L84.0775 149.716L90.3407 151.1L90.8059 149.231C91.041 148.894 91.5433 148.2 91.6708 148.121C91.7984 148.042 92.9516 147.359 93.5123 147.027L94.0332 145.723C93.4936 145.674 92.3692 145.572 92.1883 145.55C92.0074 145.528 89.4689 144.77 88.2222 144.394L81.4881 141.603L73.974 137.907L71.1438 136.67C70.8231 136.94 70.2011 137.541 70.2789 137.78C70.3567 138.02 70.406 138.747 70.421 139.081C70.2816 139.542 69.9729 140.546 69.8532 140.869Z" fill="#4B4A4A"/>
<path d="M69.6893 140.444C69.5452 140.629 68.7899 142.94 68.4303 144.073L67.3828 143.406C66.9258 143.075 65.8487 142.241 65.1959 141.554C64.3799 140.695 61.9373 137.901 61.768 137.695C61.6325 137.53 60.0983 134.684 59.3482 133.282C58.8857 132.005 57.9545 129.417 57.93 129.279C57.9055 129.141 56.4732 124.724 55.7601 122.533L56.0736 122.554L56.2178 122.369L61.0193 121.499C61.0277 121.63 61.0608 121.933 61.1264 122.103C61.2083 122.315 61.8955 123.445 62.0135 123.612C62.1078 123.745 64.3673 127.402 65.4852 129.215L66.5984 130.751L66.3821 131.028C66.2948 131.035 66.0778 131.059 65.9092 131.106C65.6984 131.165 65.5804 130.999 65.1643 130.898C64.7481 130.797 64.7634 130.883 64.5165 130.988C64.2697 131.093 64.0796 131.02 63.8688 131.078C63.7002 131.126 63.1374 131.029 62.8771 130.975L63.4931 131.455C64.1973 131.433 65.6508 131.396 65.8317 131.418C66.0578 131.445 66.0938 131.399 66.3199 131.426C66.546 131.453 68.0601 133.004 69.0967 134.109C70.1334 135.214 70.5387 135.752 70.5693 135.925C70.5938 136.063 70.8599 136.399 70.9899 136.55C70.7772 136.682 70.2841 137.011 70.0124 137.275C69.6727 137.606 70.1861 138.006 70.2473 138.351C70.2963 138.627 70.1847 138.996 70.1229 139.146C70.0384 139.501 69.8335 140.259 69.6893 140.444Z" fill="#4B4A4A"/>
<path d="M66.3263 129.618L61.6399 121.761L62.858 117.761L65.1798 110.332L69.5761 107.652C69.9511 107.312 70.7353 106.609 70.8723 106.517L71.9001 105.833C72.1778 105.829 72.7516 105.82 72.8246 105.811C72.916 105.8 74.4916 105.047 74.6229 104.984C74.728 104.934 78.502 104.981 80.3759 105.011L81.8711 105.103L83.0179 105.749L83.2287 106.325L84.6094 106.988L93.6967 114.065L93.5285 118.306C92.7073 120.278 90.8297 124.419 89.8887 125.203C88.7124 126.184 88.8609 125.888 88.581 126.247C88.3571 126.535 86.7482 127.541 85.9717 128.009L69.9588 134.591L67.0728 131.519L66.3263 129.618Z" fill="#FAC129"/>
<path d="M86.3483 128.055L70.1127 134.711L71.1104 136.395L76.1941 138.869L87.2232 143.665L92.1646 145.369L94.0365 145.507L105.883 138.979L105.975 138.226C105.881 136.228 105.707 132.194 105.762 132.039C105.817 131.884 105.477 130.745 105.301 130.195L88.8263 126.356L86.3483 128.055Z" fill="#FAC129"/>
<path d="M95.1663 127.746L88.9463 126.201L89.8314 125.489L90.8537 124.388L93.7111 118.283L93.8507 114.185L94.33 114.311L102.225 120.377L103.047 121.017L103.229 121.736L104.05 123.118L105.238 130.064L104.125 129.692L95.1663 127.746Z" fill="#FAC129"/>
<path d="M80.5905 126.481C80.4768 125.727 80.5896 124.935 80.9451 124.2C81.8964 122.233 84.255 121.411 86.2226 122.362C88.1902 123.314 89.0115 125.672 88.0603 127.64C87.109 129.608 84.7504 130.429 82.7828 129.478" stroke="#4B4A4A" stroke-width="1.19686" stroke-linecap="round" stroke-linejoin="round"/>
<path d="M93.1121 122.211C92.0092 120.207 90.4334 118.648 88.4757 117.702C84.9679 116.006 80.6992 116.492 76.694 118.97C75.1223 119.938 73.9837 122.293 74.2007 124.127C74.7468 128.805 77.0169 132.452 80.5247 134.148C84.0326 135.844 88.3013 135.358 92.3064 132.88C93.8782 131.912 95.0168 129.556 94.7998 127.723" stroke="#4B4A4A" stroke-width="1.19686" stroke-linecap="round" stroke-linejoin="round"/>
<path d="M225.486 263.329C224.74 261.552 225.21 251.972 225.538 247.404L226.625 246.008L234.641 240.557C239.39 239.272 249.286 236.681 250.886 236.602C252.885 236.504 263.189 244.261 266.035 246.21C268.311 247.77 275.912 254.17 278.541 258.139L284.581 272.348C284 274.867 282.637 280.466 281.839 282.707C280.841 285.507 277.649 289.322 273.645 290.475C269.64 291.628 260.397 292.386 259.669 292.086C258.941 291.786 243.075 288.987 237.412 284.577C231.75 280.167 230.322 276.493 229.073 273.918C227.824 271.343 226.419 265.55 225.486 263.329Z" fill="#FAA241"/>
<path d="M234.853 251.434L225.828 247.453C225.093 252.888 225.272 259.783 225.453 262.551L225.699 263.188L231.199 262.268L234.853 251.434Z" fill="#4B4A4A"/>
<path d="M234.946 251.209L226.132 247.17L226.627 246.217L234.946 251.209Z" fill="#4B4A4A"/>
<path d="M235.096 250.805L227.084 246.053C227.459 245.571 232.268 242.432 234.626 240.923L237.389 242.777L241.038 242.645L242.461 242.935L244.153 245.74L242.826 246.491L242.112 246.455L241.202 246.564L240.734 247.166L239.056 248.685L236.36 250.451L235.096 250.805Z" fill="#4B4A4A"/>
<path d="M237.43 242.512L234.858 240.731L237.022 239.964L250.606 236.714L251.284 236.796C251.225 237.048 251.124 237.594 251.19 237.764C251.256 237.934 251.515 238.512 251.636 238.78L252.161 241.494L252.773 244.944L251.847 245.71L250.388 245.466L245.449 245.56L244.472 245.542L243.18 243.495L242.4 242.59L241.131 242.42L239.121 242.565L237.43 242.512Z" fill="#4B4A4A"/>
<path d="M253.471 245.637L253.398 246.472L253.454 247.036L254.897 247.937L261.931 253.414L267.62 257.547L273.164 261.865L274.378 261.472L275.495 260.038L277.532 258.799L278.217 257.92L275.472 254.667C271.661 250.748 268.648 248.46 267.618 247.806L264.588 245.447L258.365 241.047L253.01 237.545L251.725 237.288L251.652 238.124L252.056 239.405L253.123 244.919L253.471 245.637Z" fill="#4B4A4A"/>
<path d="M274.496 261.638L273.246 262.078L273.456 262.762L274.159 263.978C274.495 265.628 275.29 269.557 275.772 272.074C276.253 274.59 276.253 278.198 276.193 279.688C276.453 279.989 277.014 280.624 277.178 280.752C277.342 280.88 279.514 283.613 280.58 284.963L281.019 283.446L281.74 282.52C282.532 279.173 284.157 272.448 284.313 272.332C284.469 272.216 284.013 271.553 283.765 271.236L279.144 259.906L278.386 258.126L277.635 258.879L276.837 259.373C276.453 259.619 275.678 260.12 275.649 260.158L274.496 261.638Z" fill="#4B4A4A"/>
<path d="M278.932 283.159C279.203 283.489 280.037 284.565 280.42 285.062C279.655 285.903 277.922 287.74 277.111 288.358C276.3 288.975 274.98 289.647 274.421 289.906L271.099 290.888L265.306 291.654L260.361 291.967C260.875 291.202 261.172 289.55 261.753 289.333C261.979 289.249 263.453 288.526 263.79 288.094L264.28 286.618C266.14 285.712 269.875 283.733 270.2 283.57C270.525 283.407 274.397 281.04 276.022 280.224L276.644 280.485C276.834 280.806 277.219 281.483 277.244 281.621C277.268 281.759 276.959 281.846 276.801 281.872L276.117 282.751L276.775 282.223L277.603 281.901C277.933 282.183 278.661 282.83 278.932 283.159Z" fill="#4B4A4A"/>
<path d="M239.853 281.869C239.734 282.192 239.078 284.065 238.765 284.961L238.548 285.239L240.202 286.081L244.881 288.015L254.078 290.716L260.341 292.1L260.806 290.231C261.041 289.894 261.543 289.2 261.671 289.121C261.798 289.042 262.952 288.359 263.512 288.027L264.033 286.723C263.494 286.674 262.369 286.572 262.188 286.55C262.007 286.528 259.469 285.77 258.222 285.394L251.488 282.603L243.974 278.907L241.144 277.67C240.823 277.94 240.201 278.541 240.279 278.78C240.357 279.02 240.406 279.747 240.421 280.081C240.282 280.542 239.973 281.546 239.853 281.869Z" fill="#4B4A4A"/>
<path d="M239.689 281.444C239.545 281.629 238.79 283.94 238.43 285.073L237.383 284.406C236.926 284.075 235.849 283.241 235.196 282.554C234.38 281.695 231.937 278.901 231.768 278.695C231.632 278.53 230.098 275.684 229.348 274.282C228.886 273.005 227.954 270.417 227.93 270.279C227.905 270.141 226.473 265.724 225.76 263.533L226.074 263.554L226.218 263.369L231.019 262.499C231.028 262.63 231.061 262.933 231.126 263.103C231.208 263.315 231.895 264.445 232.013 264.612C232.108 264.745 234.367 268.402 235.485 270.215L236.598 271.751L236.382 272.028C236.295 272.035 236.078 272.059 235.909 272.106C235.698 272.165 235.58 271.999 235.164 271.898C234.748 271.797 234.763 271.883 234.516 271.988C234.27 272.093 234.08 272.02 233.869 272.078C233.7 272.126 233.137 272.029 232.877 271.975L233.493 272.455C234.197 272.433 235.651 272.396 235.832 272.418C236.058 272.445 236.094 272.399 236.32 272.426C236.546 272.453 238.06 274.004 239.097 275.109C240.133 276.214 240.539 276.752 240.569 276.925C240.594 277.063 240.86 277.399 240.99 277.55C240.777 277.682 240.284 278.011 240.012 278.275C239.673 278.606 240.186 279.006 240.247 279.351C240.296 279.627 240.185 279.996 240.123 280.146C240.038 280.501 239.833 281.259 239.689 281.444Z" fill="#4B4A4A"/>
<path d="M236.326 270.618L231.64 262.761L232.858 258.761L235.18 251.332L239.576 248.652C239.951 248.312 240.735 247.609 240.872 247.517L241.9 246.833C242.178 246.829 242.752 246.82 242.825 246.811C242.916 246.8 244.492 246.047 244.623 245.984C244.728 245.934 248.502 245.981 250.376 246.011L251.871 246.103L253.018 246.749L253.229 247.325L254.609 247.988L263.697 255.065L263.528 259.306C262.707 261.278 260.83 265.419 259.889 266.203C258.712 267.184 258.861 266.888 258.581 267.247C258.357 267.535 256.748 268.541 255.972 269.009L239.959 275.591L237.073 272.519L236.326 270.618Z" fill="#FAC129"/>
<path d="M256.348 269.055L240.113 275.711L241.11 277.395L246.194 279.869L257.223 284.665L262.165 286.369L264.036 286.507L275.883 279.979L275.975 279.226C275.881 277.228 275.707 273.194 275.762 273.039C275.817 272.884 275.477 271.745 275.301 271.195L258.826 267.356L256.348 269.055Z" fill="#FAC129"/>
<path d="M265.166 268.746L258.946 267.201L259.831 266.489L260.854 265.388L263.711 259.283L263.851 255.185L264.33 255.311L272.225 261.377L273.047 262.017L273.229 262.736L274.05 264.118L275.238 271.064L274.125 270.692L265.166 268.746Z" fill="#FAC129"/>
<path d="M250.59 267.481C250.477 266.727 250.59 265.935 250.945 265.2C251.896 263.233 254.255 262.411 256.223 263.362C258.19 264.314 259.011 266.672 258.06 268.64C257.109 270.608 254.75 271.429 252.783 270.478" stroke="#4B4A4A" stroke-width="1.19686" stroke-linecap="round" stroke-linejoin="round"/>
<path d="M263.112 263.211C262.009 261.207 260.433 259.648 258.476 258.702C254.968 257.006 250.699 257.492 246.694 259.97C245.122 260.938 243.984 263.293 244.201 265.127C244.747 269.805 247.017 273.452 250.525 275.148C254.033 276.844 258.301 276.358 262.306 273.88C263.878 272.912 265.017 270.556 264.8 268.723" stroke="#4B4A4A" stroke-width="1.19686" stroke-linecap="round" stroke-linejoin="round"/>
<path d="M234.486 526.329C233.74 524.552 234.21 514.972 234.538 510.404L235.625 509.008L243.641 503.557C248.39 502.272 258.286 499.681 259.886 499.602C261.885 499.504 272.189 507.261 275.035 509.21C277.311 510.77 284.912 517.17 287.541 521.139L293.581 535.348C293 537.867 291.637 543.466 290.839 545.707C289.841 548.507 286.649 552.322 282.645 553.475C278.64 554.628 269.397 555.386 268.669 555.086C267.941 554.786 252.075 551.987 246.412 547.577C240.75 543.167 239.322 539.493 238.073 536.918C236.824 534.343 235.419 528.55 234.486 526.329Z" fill="#FAA241"/>
<path d="M243.853 514.434L234.828 510.453C234.093 515.888 234.272 522.783 234.453 525.551L234.699 526.188L240.199 525.268L243.853 514.434Z" fill="#4B4A4A"/>
<path d="M243.946 514.209L235.132 510.17L235.627 509.217L243.946 514.209Z" fill="#4B4A4A"/>
<path d="M244.096 513.805L236.084 509.053C236.459 508.571 241.268 505.432 243.626 503.923L246.389 505.777L250.038 505.645L251.461 505.935L253.153 508.74L251.826 509.491L251.112 509.455L250.202 509.564L249.734 510.166L248.056 511.685L245.36 513.451L244.096 513.805Z" fill="#4B4A4A"/>
<path d="M246.43 505.512L243.858 503.731L246.022 502.964L259.606 499.714L260.284 499.796C260.225 500.048 260.124 500.594 260.19 500.764C260.256 500.934 260.515 501.512 260.636 501.78L261.161 504.494L261.773 507.944L260.847 508.71L259.388 508.466L254.449 508.56L253.472 508.542L252.18 506.495L251.4 505.59L250.131 505.42L248.121 505.565L246.43 505.512Z" fill="#4B4A4A"/>
<path d="M262.471 508.637L262.398 509.472L262.454 510.036L263.897 510.937L270.931 516.414L276.62 520.547L282.164 524.865L283.378 524.472L284.495 523.038L286.532 521.799L287.217 520.92L284.472 517.667C280.661 513.748 277.648 511.46 276.618 510.806L273.588 508.447L267.365 504.047L262.01 500.545L260.725 500.288L260.652 501.124L261.056 502.405L262.123 507.919L262.471 508.637Z" fill="#4B4A4A"/>
<path d="M283.496 524.638L282.246 525.078L282.456 525.762L283.159 526.978C283.495 528.628 284.29 532.557 284.772 535.074C285.253 537.59 285.253 541.198 285.193 542.688C285.453 542.989 286.014 543.624 286.178 543.752C286.342 543.88 288.514 546.613 289.58 547.963L290.019 546.446L290.74 545.52C291.532 542.173 293.157 535.448 293.313 535.332C293.469 535.216 293.013 534.553 292.765 534.236L288.144 522.906L287.386 521.126L286.635 521.879L285.837 522.373C285.453 522.619 284.678 523.12 284.649 523.158L283.496 524.638Z" fill="#4B4A4A"/>
<path d="M287.932 546.159C288.203 546.489 289.037 547.565 289.42 548.062C288.655 548.903 286.922 550.74 286.111 551.358C285.3 551.975 283.98 552.647 283.421 552.906L280.099 553.888L274.306 554.654L269.361 554.967C269.875 554.202 270.172 552.55 270.753 552.333C270.979 552.249 272.453 551.526 272.79 551.094L273.28 549.618C275.14 548.712 278.875 546.733 279.2 546.57C279.525 546.407 283.397 544.04 285.022 543.224L285.644 543.485C285.834 543.806 286.219 544.483 286.244 544.621C286.268 544.759 285.959 544.846 285.801 544.872L285.117 545.751L285.775 545.223L286.603 544.901C286.933 545.183 287.661 545.83 287.932 546.159Z" fill="#4B4A4A"/>
<path d="M248.853 544.869C248.734 545.192 248.078 547.065 247.765 547.961L247.548 548.239L249.202 549.081L253.881 551.015L263.078 553.716L269.341 555.1L269.806 553.231C270.041 552.894 270.543 552.2 270.671 552.121C270.798 552.042 271.952 551.359 272.512 551.027L273.033 549.723C272.494 549.674 271.369 549.572 271.188 549.55C271.007 549.528 268.469 548.77 267.222 548.394L260.488 545.603L252.974 541.907L250.144 540.67C249.823 540.94 249.201 541.541 249.279 541.78C249.357 542.02 249.406 542.747 249.421 543.081C249.282 543.542 248.973 544.546 248.853 544.869Z" fill="#4B4A4A"/>
<path d="M248.689 544.444C248.545 544.629 247.79 546.94 247.43 548.073L246.383 547.406C245.926 547.075 244.849 546.241 244.196 545.554C243.38 544.695 240.937 541.901 240.768 541.695C240.632 541.53 239.098 538.684 238.348 537.282C237.886 536.005 236.954 533.417 236.93 533.279C236.905 533.141 235.473 528.724 234.76 526.533L235.074 526.554L235.218 526.369L240.019 525.499C240.028 525.63 240.061 525.933 240.126 526.103C240.208 526.315 240.895 527.445 241.013 527.612C241.108 527.745 243.367 531.402 244.485 533.215L245.598 534.751L245.382 535.028C245.295 535.035 245.078 535.059 244.909 535.106C244.698 535.165 244.58 534.999 244.164 534.898C243.748 534.797 243.763 534.883 243.516 534.988C243.27 535.093 243.08 535.02 242.869 535.078C242.7 535.126 242.137 535.029 241.877 534.975L242.493 535.455C243.197 535.433 244.651 535.396 244.832 535.418C245.058 535.445 245.094 535.399 245.32 535.426C245.546 535.453 247.06 537.004 248.097 538.109C249.133 539.214 249.539 539.752 249.569 539.925C249.594 540.063 249.86 540.399 249.99 540.55C249.777 540.682 249.284 541.011 249.012 541.275C248.673 541.606 249.186 542.006 249.247 542.351C249.296 542.627 249.185 542.996 249.123 543.146C249.038 543.501 248.833 544.259 248.689 544.444Z" fill="#4B4A4A"/>
<path d="M245.326 533.618L240.64 525.761L241.858 521.761L244.18 514.332L248.576 511.652C248.951 511.312 249.735 510.609 249.872 510.517L250.9 509.833C251.178 509.829 251.752 509.82 251.825 509.811C251.916 509.8 253.492 509.047 253.623 508.984C253.728 508.934 257.502 508.981 259.376 509.011L260.871 509.103L262.018 509.749L262.229 510.325L263.609 510.988L272.697 518.065L272.528 522.306C271.707 524.278 269.83 528.419 268.889 529.203C267.712 530.184 267.861 529.888 267.581 530.247C267.357 530.535 265.748 531.541 264.972 532.009L248.959 538.591L246.073 535.519L245.326 533.618Z" fill="#FAC129"/>
<path d="M265.348 532.055L249.113 538.711L250.11 540.395L255.194 542.869L266.223 547.665L271.165 549.369L273.036 549.507L284.883 542.979L284.975 542.226C284.881 540.228 284.707 536.194 284.762 536.039C284.817 535.884 284.477 534.745 284.301 534.195L267.826 530.356L265.348 532.055Z" fill="#FAC129"/>
<path d="M274.166 531.746L267.946 530.201L268.831 529.489L269.854 528.388L272.711 522.283L272.851 518.185L273.33 518.311L281.225 524.377L282.047 525.017L282.229 525.736L283.05 527.118L284.238 534.064L283.125 533.692L274.166 531.746Z" fill="#FAC129"/>
<path d="M259.59 530.481C259.477 529.727 259.59 528.935 259.945 528.2C260.896 526.233 263.255 525.411 265.223 526.362C267.19 527.314 268.011 529.672 267.06 531.64C266.109 533.608 263.75 534.429 261.783 533.478" stroke="#4B4A4A" stroke-width="1.19686" stroke-linecap="round" stroke-linejoin="round"/>
<path d="M272.112 526.211C271.009 524.207 269.433 522.648 267.476 521.702C263.968 520.006 259.699 520.492 255.694 522.97C254.122 523.938 252.984 526.293 253.201 528.127C253.747 532.805 256.017 536.452 259.525 538.148C263.033 539.844 267.301 539.358 271.306 536.88C272.878 535.912 274.017 533.556 273.8 531.723" stroke="#4B4A4A" stroke-width="1.19686" stroke-linecap="round" stroke-linejoin="round"/>
</svg>
